# xmcd
#
# Track frame offsets: 
#        150
#        13102
#        28441
#        43881
#        59234
#        72368
#        90829
#        98247
#        110032
#        120336
#        137131
#        153045
#        167717
#
# Disc length: 2370 seconds
#
# Revision: 0
# Processed by: cddbd v1.5.2PL0 Copyright (c) Steve Scherf et al.
# Submitted via: ExactAudioCopyFreeDBPlugin 1.0
#
DISCID=b309400d
DTITLE=Richard van Bergen - Rootbag
DYEAR=2014
DGENRE=Blues
TTITLE0=Nobody
TTITLE1=When He Comes
TTITLE2=All The Time
TTITLE3=Give Me Your Heart
TTITLE4=Stand In Line
TTITLE5=One Day
TTITLE6=Od On Love
TTITLE7=Tired Of Being The Fool That I Am
TTITLE8=Don’t Lose Your Pride
TTITLE9=Nothing In This Wordld
TTITLE10=Will This Love
TTITLE11=Love Tells No Lies
TTITLE12=Od On Love (Slight Return)
EXTD=
EXTT0=
EXTT1=
EXTT2=
EXTT3=
EXTT4=
EXTT5=
EXTT6=
EXTT7=
EXTT8=
EXTT9=
EXTT10=
EXTT11=
EXTT12=
PLAYORDER=
